<svg width="64" height="65" viewBox="0 0 64 65" fill="none" xmlns="http://www.w3.org/2000/svg">
<path d="M45.7185 11.9785C46.1246 11.9785 46.5267 12.0587 46.9017 12.2145C47.2768 12.3703 47.6174 12.5986 47.9039 12.8863C48.1905 13.174 48.4174 13.5155 48.5717 13.8912C48.726 14.2668 48.8046 14.6692 48.803 15.0753V16.5618H40.3672L45.7185 11.9785Z" fill="#3DC9A1"/>
<path opacity="0.7" d="M45.7185 11.9785C46.1246 11.9785 46.5267 12.0587 46.9017 12.2145C47.2768 12.3703 47.6174 12.5986 47.9039 12.8863C48.1905 13.174 48.4174 13.5155 48.5717 13.8912C48.726 14.2668 48.8046 14.6692 48.803 15.0753V16.5618H40.3672L45.7185 11.9785Z" fill="#093F38"/>
<path d="M47.069 52.8566C53.1512 40.7913 40.9745 23.0404 45.7188 11.9785H19.8665C18.6816 11.9806 17.5405 12.4271 16.6689 13.2299C15.7973 14.0327 15.2586 15.1333 15.1594 16.3141C14.156 27.5493 23.3597 43.0087 17.1165 53.6246H45.694C45.9714 53.6339 46.2461 53.5673 46.4885 53.432C46.7308 53.2966 46.9315 53.0977 47.069 52.8566Z" fill="#3DC9A1"/>
<path opacity="0.3" d="M47.069 52.8566C53.1512 40.7913 40.9745 23.0404 45.7188 11.9785H19.8665C18.6816 11.9806 17.5405 12.4271 16.6689 13.2299C15.7973 14.0327 15.2586 15.1333 15.1594 16.3141C14.156 27.5493 23.3597 43.0087 17.1165 53.6246H45.694C45.9714 53.6339 46.2461 53.5673 46.4885 53.432C46.7308 53.2966 46.9315 53.0977 47.069 52.8566Z" fill="#093F38"/>
<path d="M17.1113 53.6407C16.3918 53.6407 15.7018 53.3549 15.193 52.8461C14.6843 52.3374 14.3984 51.6473 14.3984 50.9279V49.9121H43.1246V50.9279C43.1246 51.6473 43.4104 52.3374 43.9191 52.8461C44.4279 53.3549 45.1179 53.6407 45.8374 53.6407H17.1113Z" fill="#3DC9A1"/>
<path opacity="0.5" d="M17.1113 53.6407C16.3918 53.6407 15.7018 53.3549 15.193 52.8461C14.6843 52.3374 14.3984 51.6473 14.3984 50.9279V49.9121H43.1246V50.9279C43.1246 51.6473 43.4104 52.3374 43.9191 52.8461C44.4279 53.3549 45.1179 53.6407 45.8374 53.6407H17.1113Z" fill="#093F38"/>
<path opacity="0.3" d="M39.4929 17.7363H19.1406V19.4334H39.4929V17.7363Z" fill="#093F38"/>
<path opacity="0.3" d="M40.4422 23.7324H20.0898V25.4295H40.4422V23.7324Z" fill="#093F38"/>
<path opacity="0.3" d="M41.5359 28.2637H21.1836V29.9607H41.5359V28.2637Z" fill="#093F38"/>
<path opacity="0.3" d="M42.6336 32.8145H22.2812V34.5115H42.6336V32.8145Z" fill="#093F38"/>
<path opacity="0.3" d="M40.3723 46.3637C42.1031 46.3637 43.5062 44.9605 43.5062 43.2297C43.5062 41.4988 42.1031 40.0957 40.3723 40.0957C38.6414 40.0957 37.2383 41.4988 37.2383 43.2297C37.2383 44.9605 38.6414 46.3637 40.3723 46.3637Z" fill="#093F38"/>
</svg>
