<svg width="64" height="65" viewBox="0 0 64 65" fill="none" xmlns="http://www.w3.org/2000/svg">
<path d="M10.0197 53.6342C9.16572 53.4276 8.38146 52.9991 7.74626 52.392C7.11105 51.785 6.64746 51.021 6.40234 50.1772V49.9585L28.5151 27.8457L32.1908 31.5214L10.0197 53.6342Z" fill="#3DC9A1"/>
<path opacity="0.5" d="M10.0197 53.6342C9.16572 53.4276 8.38146 52.9991 7.74626 52.392C7.11105 51.785 6.64746 51.021 6.40234 50.1772V49.9585L28.5151 27.8457L32.1908 31.5214L10.0197 53.6342Z" fill="#093F38"/>
<path d="M34.7663 29.8386L30.125 25.1973L25.659 29.6632L30.3004 34.3045L34.7663 29.8386Z" fill="#3DC9A1"/>
<path opacity="0.7" d="M34.7663 29.8386L30.125 25.1973L25.659 29.6632L30.3004 34.3045L34.7663 29.8386Z" fill="#093F38"/>
<path d="M44.934 28.9984L30.9688 15.0332L23.5942 22.4077L37.5594 36.373L44.934 28.9984Z" fill="#3DC9A1"/>
<path opacity="0.3" d="M44.934 28.9984L30.9688 15.0332L23.5942 22.4077L37.5594 36.373L44.934 28.9984Z" fill="#093F38"/>
<path d="M32.8781 15.1887L30.6916 13.0021C30.1219 12.4325 29.1984 12.4325 28.6288 13.0021L21.574 20.0569C21.0043 20.6265 21.0043 21.5501 21.574 22.1197L23.7605 24.3063C24.3302 24.8759 25.2537 24.8759 25.8233 24.3063L32.8781 17.2515C33.4478 16.6819 33.4478 15.7583 32.8781 15.1887Z" fill="#3DC9A1"/>
<path d="M46.9563 29.2902L44.7697 27.1037C44.2001 26.534 43.2765 26.534 42.7069 27.1037L35.6521 34.1585C35.0825 34.7281 35.0825 35.6516 35.6521 36.2213L37.8387 38.4078C38.4083 38.9775 39.3318 38.9775 39.9015 38.4078L46.9563 31.353C47.5259 30.7834 47.5259 29.8599 46.9563 29.2902Z" fill="#3DC9A1"/>
<g opacity="0.5">
<path d="M32.8938 15.1887L30.7072 13.0021C30.1376 12.4325 29.214 12.4325 28.6444 13.0021L21.5896 20.0569C21.02 20.6265 21.02 21.5501 21.5896 22.1197L23.7762 24.3063C24.3458 24.8759 25.2693 24.8759 25.839 24.3063L32.8938 17.2515C33.4634 16.6819 33.4634 15.7583 32.8938 15.1887Z" fill="#093F38"/>
<path d="M46.9563 29.2746L44.7697 27.088C44.2001 26.5184 43.2765 26.5184 42.7069 27.088L35.6521 34.1428C35.0825 34.7125 35.0825 35.636 35.6521 36.2056L37.8387 38.3922C38.4083 38.9618 39.3318 38.9618 39.9015 38.3922L46.9563 31.3374C47.5259 30.7678 47.5259 29.8442 46.9563 29.2746Z" fill="#093F38"/>
</g>
<path d="M34.7188 42.9004H53.4184C53.6559 42.9004 53.8911 42.9472 54.1106 43.0381C54.33 43.129 54.5294 43.2622 54.6973 43.4301C54.8653 43.5981 54.9985 43.7975 55.0894 44.0169C55.1803 44.2364 55.2271 44.4716 55.2271 44.7091V50.0185H32.9102V44.6799C32.9178 44.2053 33.1117 43.7527 33.4501 43.4198C33.7885 43.0869 34.2442 42.9003 34.7188 42.9004Z" fill="#3DC9A1"/>
<path opacity="0.3" d="M34.7188 42.9004H53.4184C53.6559 42.9004 53.8911 42.9472 54.1106 43.0381C54.33 43.129 54.5294 43.2622 54.6973 43.4301C54.8653 43.5981 54.9985 43.7975 55.0894 44.0169C55.1803 44.2364 55.2271 44.4716 55.2271 44.7091V50.0185H32.9102V44.6799C32.9178 44.2053 33.1117 43.7527 33.4501 43.4198C33.7885 43.0869 34.2442 42.9003 34.7188 42.9004Z" fill="#093F38"/>
<path d="M55.678 49.7207H32.4566C31.9485 49.7207 31.461 49.9215 31.1003 50.2795C30.7396 50.6374 30.5351 51.1234 30.5312 51.6315C30.5312 52.1421 30.7341 52.6319 31.0952 52.9929C31.4563 53.354 31.946 53.5569 32.4566 53.5569H55.678C56.1886 53.5569 56.6783 53.354 57.0394 52.9929C57.4005 52.6319 57.6033 52.1421 57.6033 51.6315C57.5995 51.1234 57.3949 50.6374 57.0343 50.2795C56.6736 49.9215 56.1861 49.7207 55.678 49.7207Z" fill="#3DC9A1"/>
<path opacity="0.5" d="M55.678 49.7207H32.4566C31.9485 49.7207 31.461 49.9215 31.1003 50.2795C30.7396 50.6374 30.5351 51.1234 30.5312 51.6315C30.5312 52.1421 30.7341 52.6319 31.0952 52.9929C31.4563 53.354 31.946 53.5569 32.4566 53.5569H55.678C56.1886 53.5569 56.6783 53.354 57.0394 52.9929C57.4005 52.6319 57.6033 52.1421 57.6033 51.6315C57.5995 51.1234 57.3949 50.6374 57.0343 50.2795C56.6736 49.9215 56.1861 49.7207 55.678 49.7207Z" fill="#093F38"/>
</svg>
