<svg width="64" height="65" viewBox="0 0 64 65" fill="none" xmlns="http://www.w3.org/2000/svg">
<path d="M23.6016 33.5684C23.1516 34.7386 22.3576 35.7451 21.3241 36.4549C20.2906 37.1648 19.0663 37.5448 17.8125 37.5448C16.5587 37.5448 15.3344 37.1648 14.3009 36.4549C13.2674 35.7451 12.4734 34.7386 12.0234 33.5684H23.6016Z" fill="#3DC9A1"/>
<path opacity="0.5" d="M23.6016 33.5684C23.1516 34.7386 22.3576 35.7451 21.3241 36.4549C20.2906 37.1648 19.0663 37.5448 17.8125 37.5448C16.5587 37.5448 15.3344 37.1648 14.3009 36.4549C13.2674 35.7451 12.4734 34.7386 12.0234 33.5684H23.6016Z" fill="#093F38"/>
<path d="M23.6143 32.7477C23.5766 32.7469 23.5397 32.736 23.5074 32.7163C23.4752 32.6966 23.4487 32.6687 23.4307 32.6355L17.7998 21.9346L12.1892 32.6355C12.1631 32.6851 12.1186 32.7226 12.0652 32.7397C12.0118 32.7569 11.9537 32.7524 11.9036 32.7273C11.8539 32.7012 11.8165 32.6566 11.7993 32.6032C11.7822 32.5498 11.7866 32.4918 11.8118 32.4417L17.606 21.394C17.6263 21.3624 17.6542 21.3364 17.6872 21.3184C17.7202 21.3004 17.7571 21.291 17.7947 21.291C17.8322 21.291 17.8692 21.3004 17.9022 21.3184C17.9351 21.3364 17.9631 21.3624 17.9834 21.394L23.7776 32.4417C23.8027 32.4918 23.8072 32.5498 23.79 32.6032C23.7728 32.6566 23.7354 32.7012 23.6858 32.7273L23.6143 32.7477Z" fill="#3DC9A1"/>
<g opacity="0.7">
<path d="M23.6065 32.7555C23.5687 32.7547 23.5319 32.7438 23.4996 32.7241C23.4674 32.7044 23.4409 32.6765 23.4229 32.6433L17.792 21.9424L12.1814 32.6433C12.1553 32.693 12.1108 32.7304 12.0574 32.7476C12.0039 32.7647 11.9459 32.7603 11.8958 32.7351C11.8461 32.709 11.8087 32.6645 11.7915 32.611C11.7744 32.5576 11.7788 32.4996 11.804 32.4495L17.5981 21.4018C17.6185 21.3702 17.6464 21.3442 17.6794 21.3262C17.7123 21.3082 17.7493 21.2988 17.7869 21.2988C17.8244 21.2988 17.8614 21.3082 17.8943 21.3262C17.9273 21.3442 17.9552 21.3702 17.9756 21.4018L23.7697 32.4495C23.7949 32.4996 23.7994 32.5576 23.7822 32.611C23.765 32.6645 23.7276 32.709 23.6779 32.7351L23.6065 32.7555Z" fill="#093F38"/>
</g>
<path d="M17.7924 33.2837C17.7647 33.2851 17.7371 33.2809 17.7111 33.2712C17.6852 33.2616 17.6615 33.2468 17.6414 33.2277C17.6214 33.2086 17.6055 33.1857 17.5946 33.1602C17.5837 33.1348 17.5781 33.1074 17.5781 33.0797V21.4914C17.5781 21.4637 17.5837 21.4363 17.5946 21.4109C17.6055 21.3854 17.6214 21.3625 17.6414 21.3434C17.6615 21.3243 17.6852 21.3095 17.7111 21.2999C17.7371 21.2902 17.7647 21.286 17.7924 21.2874C17.8465 21.2874 17.8984 21.3089 17.9366 21.3471C17.9749 21.3854 17.9964 21.4373 17.9964 21.4914V33.0593C17.9992 33.0878 17.9961 33.1165 17.9871 33.1437C17.9781 33.1708 17.9636 33.1958 17.9443 33.217C17.9251 33.2381 17.9016 33.255 17.8754 33.2665C17.8493 33.278 17.821 33.2839 17.7924 33.2837Z" fill="#3DC9A1"/>
<g opacity="0.7">
<path d="M17.7924 33.2759C17.7647 33.2773 17.7371 33.2731 17.7111 33.2634C17.6852 33.2538 17.6615 33.239 17.6414 33.2199C17.6214 33.2008 17.6055 33.1779 17.5946 33.1524C17.5837 33.127 17.5781 33.0996 17.5781 33.0719V21.4836C17.5781 21.4559 17.5837 21.4285 17.5946 21.4031C17.6055 21.3776 17.6214 21.3547 17.6414 21.3356C17.6615 21.3165 17.6852 21.3017 17.7111 21.2921C17.7371 21.2824 17.7647 21.2782 17.7924 21.2796C17.8465 21.2796 17.8984 21.301 17.9366 21.3393C17.9749 21.3776 17.9964 21.4295 17.9964 21.4836V33.0515C17.9992 33.08 17.9961 33.1087 17.9871 33.1359C17.9781 33.163 17.9636 33.188 17.9443 33.2092C17.9251 33.2303 17.9016 33.2472 17.8754 33.2587C17.8493 33.2702 17.821 33.2761 17.7924 33.2759Z" fill="#093F38"/>
</g>
<path d="M24.444 32.5371H11.2031V33.5674H24.444V32.5371Z" fill="#3DC9A1"/>
<path opacity="0.3" d="M24.444 32.5371H11.2031V33.5674H24.444V32.5371Z" fill="#093F38"/>
<path d="M52.268 33.5684C51.8158 34.7377 51.0203 35.7429 49.9862 36.4517C48.952 37.1605 47.7276 37.5399 46.4738 37.5399C45.2201 37.5399 43.9957 37.1605 42.9615 36.4517C41.9274 35.7429 41.1319 34.7377 40.6797 33.5684H52.268Z" fill="#3DC9A1"/>
<path opacity="0.5" d="M52.268 33.5684C51.8158 34.7377 51.0203 35.7429 49.9862 36.4517C48.952 37.1605 47.7276 37.5399 46.4738 37.5399C45.2201 37.5399 43.9957 37.1605 42.9615 36.4517C41.9274 35.7429 41.1319 34.7377 40.6797 33.5684H52.268Z" fill="#093F38"/>
<path d="M52.2764 32.7486C52.2382 32.7501 52.2003 32.7403 52.1676 32.7203C52.1349 32.7004 52.1089 32.6712 52.0928 32.6364L46.4823 21.9355L40.8717 32.6364C40.859 32.6605 40.8416 32.6819 40.8206 32.6993C40.7997 32.7167 40.7755 32.7298 40.7494 32.7378C40.7234 32.7459 40.696 32.7487 40.6688 32.7462C40.6417 32.7437 40.6153 32.7358 40.5912 32.7231C40.5671 32.7104 40.5457 32.693 40.5283 32.672C40.5109 32.6511 40.4978 32.6269 40.4897 32.6008C40.4817 32.5748 40.4788 32.5474 40.4814 32.5202C40.4839 32.4931 40.4917 32.4667 40.5045 32.4426L46.2986 21.3949C46.3177 21.3632 46.3446 21.337 46.3768 21.3188C46.409 21.3006 46.4453 21.291 46.4823 21.291C46.5192 21.291 46.5556 21.3006 46.5877 21.3188C46.6199 21.337 46.6468 21.3632 46.6659 21.3949L52.4804 32.4426C52.5056 32.4927 52.5101 32.5507 52.4929 32.6041C52.4757 32.6576 52.4383 32.7021 52.3886 32.7282L52.2764 32.7486Z" fill="#3DC9A1"/>
<g opacity="0.7">
<path d="M52.2647 32.7564C52.2264 32.758 52.1886 32.7481 52.1559 32.7281C52.1232 32.7082 52.0972 32.679 52.0811 32.6442L46.4705 21.9434L40.86 32.6442C40.8473 32.6683 40.8299 32.6897 40.8089 32.7071C40.7879 32.7245 40.7637 32.7376 40.7377 32.7457C40.7116 32.7537 40.6842 32.7566 40.6571 32.754C40.63 32.7515 40.6036 32.7436 40.5795 32.7309C40.5553 32.7182 40.534 32.7008 40.5166 32.6799C40.4992 32.6589 40.4861 32.6347 40.478 32.6086C40.47 32.5826 40.4671 32.5552 40.4696 32.528C40.4722 32.5009 40.48 32.4745 40.4927 32.4504L46.2869 21.4027C46.306 21.371 46.3329 21.3448 46.3651 21.3266C46.3972 21.3084 46.4336 21.2988 46.4705 21.2988C46.5075 21.2988 46.5438 21.3084 46.576 21.3266C46.6082 21.3448 46.6351 21.371 46.6542 21.4027L52.4687 32.4504C52.4939 32.5005 52.4983 32.5586 52.4812 32.612C52.464 32.6654 52.4266 32.7099 52.3769 32.736L52.2647 32.7564Z" fill="#093F38"/>
</g>
<path d="M46.4798 33.2835C46.4247 33.2836 46.3717 33.2624 46.3319 33.2244C46.292 33.1864 46.2682 33.1345 46.2656 33.0795V21.4911C46.2682 21.4361 46.292 21.3842 46.3319 21.3462C46.3717 21.3082 46.4247 21.287 46.4798 21.2871C46.5339 21.2871 46.5859 21.3086 46.6241 21.3469C46.6624 21.3851 46.6839 21.437 46.6839 21.4911V33.0591C46.6867 33.0875 46.6836 33.1163 46.6746 33.1434C46.6656 33.1706 46.6511 33.1956 46.6318 33.2167C46.6126 33.2379 46.5891 33.2548 46.5629 33.2663C46.5368 33.2778 46.5084 33.2836 46.4798 33.2835Z" fill="#3DC9A1"/>
<g opacity="0.7">
<path d="M46.4798 33.2757C46.4247 33.2757 46.3717 33.2546 46.3319 33.2166C46.292 33.1786 46.2682 33.1267 46.2656 33.0717V21.4833C46.2682 21.4283 46.292 21.3764 46.3319 21.3384C46.3717 21.3004 46.4247 21.2792 46.4798 21.2793C46.5339 21.2793 46.5859 21.3008 46.6241 21.3391C46.6624 21.3773 46.6839 21.4292 46.6839 21.4833V33.0513C46.6867 33.0797 46.6836 33.1085 46.6746 33.1356C46.6656 33.1628 46.6511 33.1877 46.6318 33.2089C46.6126 33.2301 46.5891 33.2469 46.5629 33.2584C46.5368 33.2699 46.5084 33.2758 46.4798 33.2757Z" fill="#093F38"/>
</g>
<path d="M53.1003 32.5371H39.8594V33.5674H53.1003V32.5371Z" fill="#3DC9A1"/>
<path opacity="0.3" d="M53.1003 32.5371H39.8594V33.5674H53.1003V32.5371Z" fill="#093F38"/>
<path d="M32.0791 17.9785V20.1105C29.9165 20.1105 27.4682 21.3346 25.5199 22.4159C24.2473 23.1095 22.8041 23.4279 21.3578 23.334C19.6241 23.0646 17.9762 22.3978 16.543 21.3856V20.1921C17.9283 21.1805 19.5666 21.7537 21.266 21.8447C22.8104 21.7642 24.2939 21.2164 25.5199 20.2737C27.482 18.9764 29.7361 18.1877 32.0791 17.9785Z" fill="#3DC9A1"/>
<path opacity="0.3" d="M32.0791 17.9785V20.1105C29.9165 20.1105 27.4682 21.3346 25.5199 22.4159C24.2473 23.1095 22.8041 23.4279 21.3578 23.334C19.6241 23.0646 17.9762 22.3978 16.543 21.3856V20.1921C17.9283 21.1805 19.5666 21.7537 21.266 21.8447C22.8104 21.7642 24.2939 21.2164 25.5199 20.2737C27.482 18.9764 29.7361 18.1877 32.0791 17.9785Z" fill="#093F38"/>
<path d="M17.7998 20.6636C17.7998 20.9057 17.728 21.1424 17.5935 21.3437C17.459 21.545 17.2678 21.7019 17.0441 21.7946C16.8204 21.8872 16.5743 21.9115 16.3369 21.8642C16.0994 21.817 15.8813 21.7004 15.7101 21.5292C15.5389 21.358 15.4223 21.1399 15.3751 20.9024C15.3279 20.665 15.3521 20.4188 15.4447 20.1952C15.5374 19.9715 15.6943 19.7803 15.8956 19.6458C16.0969 19.5113 16.3336 19.4395 16.5757 19.4395C16.7368 19.4381 16.8966 19.4689 17.0457 19.5299C17.1949 19.5909 17.3304 19.6811 17.4443 19.795C17.5582 19.9089 17.6484 20.0444 17.7094 20.1936C17.7704 20.3427 17.8012 20.5025 17.7998 20.6636Z" fill="#3DC9A1"/>
<path opacity="0.5" d="M17.7998 20.6636C17.7998 20.9057 17.728 21.1424 17.5935 21.3437C17.459 21.545 17.2678 21.7019 17.0441 21.7946C16.8204 21.8872 16.5743 21.9115 16.3369 21.8642C16.0994 21.817 15.8813 21.7004 15.7101 21.5292C15.5389 21.358 15.4223 21.1399 15.3751 20.9024C15.3279 20.665 15.3521 20.4188 15.4447 20.1952C15.5374 19.9715 15.6943 19.7803 15.8956 19.6458C16.0969 19.5113 16.3336 19.4395 16.5757 19.4395C16.7368 19.4381 16.8966 19.4689 17.0457 19.5299C17.1949 19.5909 17.3304 19.6811 17.4443 19.795C17.5582 19.9089 17.6484 20.0444 17.7094 20.1936C17.7704 20.3427 17.8012 20.5025 17.7998 20.6636Z" fill="#093F38"/>
<path d="M32.0742 17.9785V20.1105C34.2368 20.1105 36.6851 21.3346 38.6437 22.4159C39.9158 23.1106 41.3593 23.429 42.8057 23.334C44.5384 23.0611 46.1856 22.3946 47.6206 21.3856V20.1921C46.2307 21.1793 44.5895 21.7523 42.8873 21.8447C41.346 21.7641 39.8659 21.2161 38.6437 20.2737C36.6766 18.9787 34.4198 18.1902 32.0742 17.9785Z" fill="#3DC9A1"/>
<path opacity="0.3" d="M32.0742 17.9785V20.1105C34.2368 20.1105 36.6851 21.3346 38.6437 22.4159C39.9158 23.1106 41.3593 23.429 42.8057 23.334C44.5384 23.0611 46.1856 22.3946 47.6206 21.3856V20.1921C46.2307 21.1793 44.5895 21.7523 42.8873 21.8447C41.346 21.7641 39.8659 21.2161 38.6437 20.2737C36.6766 18.9787 34.4198 18.1902 32.0742 17.9785Z" fill="#093F38"/>
<path d="M46.4805 20.6636C46.4825 20.9032 46.5554 21.1369 46.69 21.3352C46.8246 21.5335 47.0149 21.6875 47.2369 21.7778C47.4589 21.8681 47.7027 21.8907 47.9375 21.8427C48.1723 21.7947 48.3876 21.6783 48.5563 21.5081C48.7251 21.338 48.8397 21.1217 48.8857 20.8865C48.9317 20.6513 48.9071 20.4077 48.8149 20.1865C48.7228 19.9653 48.5672 19.7763 48.3678 19.6433C48.1684 19.5104 47.9341 19.4395 47.6944 19.4395C47.5342 19.4394 47.3755 19.4712 47.2275 19.5328C47.0796 19.5945 46.9453 19.6848 46.8324 19.7986C46.7196 19.9124 46.6304 20.0474 46.57 20.1959C46.5096 20.3443 46.4792 20.5033 46.4805 20.6636Z" fill="#3DC9A1"/>
<path opacity="0.5" d="M46.4805 20.6636C46.4825 20.9032 46.5554 21.1369 46.69 21.3352C46.8246 21.5335 47.0149 21.6875 47.2369 21.7778C47.4589 21.8681 47.7027 21.8907 47.9375 21.8427C48.1723 21.7947 48.3876 21.6783 48.5563 21.5081C48.7251 21.338 48.8397 21.1217 48.8857 20.8865C48.9317 20.6513 48.9071 20.4077 48.8149 20.1865C48.7228 19.9653 48.5672 19.7763 48.3678 19.6433C48.1684 19.5104 47.9341 19.4395 47.6944 19.4395C47.5342 19.4394 47.3755 19.4712 47.2275 19.5328C47.0796 19.5945 46.9453 19.6848 46.8324 19.7986C46.7196 19.9124 46.6304 20.0474 46.57 20.1959C46.5096 20.3443 46.4792 20.5033 46.4805 20.6636Z" fill="#093F38"/>
<path d="M33.6378 14.2637H30.5469V45.8868H33.6378V14.2637Z" fill="#3DC9A1"/>
<path opacity="0.7" d="M33.6378 14.2637H30.5469V45.8868H33.6378V14.2637Z" fill="#093F38"/>
<path d="M34.7003 19.4361C34.7003 19.9546 34.5466 20.4615 34.2585 20.8926C33.9705 21.3238 33.561 21.6598 33.082 21.8582C32.6029 22.0567 32.0758 22.1086 31.5672 22.0074C31.0587 21.9063 30.5915 21.6566 30.2249 21.2899C29.8583 20.9233 29.6086 20.4561 29.5074 19.9476C29.4062 19.439 29.4582 18.9119 29.6566 18.4329C29.855 17.9538 30.191 17.5444 30.6222 17.2563C31.0533 16.9682 31.5602 16.8145 32.0787 16.8145C32.4233 16.8131 32.7649 16.88 33.0835 17.0113C33.4022 17.1426 33.6918 17.3356 33.9355 17.5793C34.1792 17.823 34.3723 18.1126 34.5035 18.4313C34.6348 18.75 34.7017 19.0915 34.7003 19.4361Z" fill="#3DC9A1"/>
<path opacity="0.5" d="M34.7003 19.4361C34.7003 19.9546 34.5466 20.4615 34.2585 20.8926C33.9705 21.3238 33.561 21.6598 33.082 21.8582C32.6029 22.0567 32.0758 22.1086 31.5672 22.0074C31.0587 21.9063 30.5915 21.6566 30.2249 21.2899C29.8583 20.9233 29.6086 20.4561 29.5074 19.9476C29.4062 19.439 29.4582 18.9119 29.6566 18.4329C29.855 17.9538 30.191 17.5444 30.6222 17.2563C31.0533 16.9682 31.5602 16.8145 32.0787 16.8145C32.4233 16.8131 32.7649 16.88 33.0835 17.0113C33.4022 17.1426 33.6918 17.3356 33.9355 17.5793C34.1792 17.823 34.3723 18.1126 34.5035 18.4313C34.6348 18.75 34.7017 19.0915 34.7003 19.4361Z" fill="#093F38"/>
<path d="M34.1195 12.4211C34.1195 12.8246 33.9998 13.219 33.7756 13.5545C33.5514 13.89 33.2328 14.1515 32.86 14.306C32.4872 14.4604 32.077 14.5008 31.6812 14.4221C31.2855 14.3433 30.9219 14.149 30.6366 13.8637C30.3513 13.5784 30.157 13.2148 30.0783 12.8191C29.9995 12.4233 30.0399 12.0131 30.1944 11.6403C30.3488 11.2675 30.6103 10.9489 30.9458 10.7247C31.2813 10.5005 31.6757 10.3809 32.0793 10.3809C32.6204 10.3809 33.1393 10.5958 33.5219 10.9784C33.9045 11.361 34.1195 11.88 34.1195 12.4211Z" fill="#3DC9A1"/>
<path opacity="0.5" d="M34.1195 12.4211C34.1195 12.8246 33.9998 13.219 33.7756 13.5545C33.5514 13.89 33.2328 14.1515 32.86 14.306C32.4872 14.4604 32.077 14.5008 31.6812 14.4221C31.2855 14.3433 30.9219 14.149 30.6366 13.8637C30.3513 13.5784 30.157 13.2148 30.0783 12.8191C29.9995 12.4233 30.0399 12.0131 30.1944 11.6403C30.3488 11.2675 30.6103 10.9489 30.9458 10.7247C31.2813 10.5005 31.6757 10.3809 32.0793 10.3809C32.6204 10.3809 33.1393 10.5958 33.5219 10.9784C33.9045 11.361 34.1195 11.88 34.1195 12.4211Z" fill="#093F38"/>
<path d="M40.5635 50.6274H23.6094V46.9244C23.6094 46.6538 23.7168 46.3944 23.9082 46.2031C24.0995 46.0118 24.3589 45.9043 24.6295 45.9043H39.5434C39.8139 45.9043 40.0734 46.0118 40.2647 46.2031C40.456 46.3944 40.5635 46.6538 40.5635 46.9244V50.6274Z" fill="#3DC9A1"/>
<path opacity="0.3" d="M40.5635 50.6274H23.6094V46.9244C23.6094 46.6538 23.7168 46.3944 23.9082 46.2031C24.0995 46.0118 24.3589 45.9043 24.6295 45.9043H39.5434C39.8139 45.9043 40.0734 46.0118 40.2647 46.2031C40.456 46.3944 40.5635 46.6538 40.5635 46.9244V50.6274Z" fill="#093F38"/>
<path d="M45.7085 54.1322H18.4616C17.9963 54.1322 17.55 53.9473 17.2209 53.6183C16.8919 53.2892 16.707 52.843 16.707 52.3776C16.707 51.9123 16.8919 51.466 17.2209 51.1369C17.55 50.8079 17.9963 50.623 18.4616 50.623H45.7085C46.1738 50.623 46.6201 50.8079 46.9491 51.1369C47.2782 51.466 47.463 51.9123 47.463 52.3776C47.463 52.843 47.2782 53.2892 46.9491 53.6183C46.6201 53.9473 46.1738 54.1322 45.7085 54.1322Z" fill="#3DC9A1"/>
<path opacity="0.5" d="M45.7085 54.1322H18.4616C17.9963 54.1322 17.55 53.9473 17.2209 53.6183C16.8919 53.2892 16.707 52.843 16.707 52.3776C16.707 51.9123 16.8919 51.466 17.2209 51.1369C17.55 50.8079 17.9963 50.623 18.4616 50.623H45.7085C46.1738 50.623 46.6201 50.8079 46.9491 51.1369C47.2782 51.466 47.463 51.9123 47.463 52.3776C47.463 52.843 47.2782 53.2892 46.9491 53.6183C46.6201 53.9473 46.1738 54.1322 45.7085 54.1322Z" fill="#093F38"/>
<path d="M40.5635 47.0996H23.6094V48.2523H40.5635V47.0996Z" fill="#3DC9A1"/>
<path opacity="0.5" d="M40.5635 47.0996H23.6094V48.2523H40.5635V47.0996Z" fill="#093F38"/>
<path d="M34.4134 14.419C34.4134 14.6445 34.3245 14.8609 34.166 15.0213C34.0075 15.1817 33.7922 15.2731 33.5667 15.2758H30.6186C30.3922 15.2732 30.1757 15.1821 30.0156 15.0219C29.8555 14.8618 29.7644 14.6454 29.7617 14.419C29.7644 14.1935 29.8559 13.9781 30.0163 13.8196C30.1767 13.6611 30.3931 13.5722 30.6186 13.5723H33.5667C33.7913 13.5723 34.0066 13.6615 34.1654 13.8203C34.3242 13.979 34.4134 14.1944 34.4134 14.419Z" fill="#3DC9A1"/>
<path opacity="0.3" d="M34.4134 14.419C34.4134 14.6445 34.3245 14.8609 34.166 15.0213C34.0075 15.1817 33.7922 15.2731 33.5667 15.2758H30.6186C30.3922 15.2732 30.1757 15.1821 30.0156 15.0219C29.8555 14.8618 29.7644 14.6454 29.7617 14.419C29.7644 14.1935 29.8559 13.9781 30.0163 13.8196C30.1767 13.6611 30.3931 13.5722 30.6186 13.5723H33.5667C33.7913 13.5723 34.0066 13.6615 34.1654 13.8203C34.3242 13.979 34.4134 14.1944 34.4134 14.419Z" fill="#093F38"/>
</svg>
